<?xml version="1.0" encoding="UTF-8"?>
<svg width="1024" height="1024" viewBox="0 0 1024 1024"
     fill="none" xmlns="http://www.w3.org/2000/svg">
  <title>EqualPath</title>
  <!-- User-supplied care emblem, recoloured to match the web UI. -->
  <defs>
    <linearGradient id="bg" x1="92" y1="70" x2="912" y2="952" gradientUnits="userSpaceOnUse">
      <stop offset="0" stop-color="#FFFFFF"/>
      <stop offset="0.52" stop-color="#FCFBF6"/>
      <stop offset="1" stop-color="#F5F4EE"/>
    </linearGradient>
    <radialGradient id="glassGlow" cx="0" cy="0" r="1" gradientUnits="userSpaceOnUse"
                    gradientTransform="translate(352 206) rotate(52) scale(620 590)">
      <stop stop-color="#FFFFFF" stop-opacity="0.95"/>
      <stop offset="0.55" stop-color="#FFFFFF" stop-opacity="0.28"/>
      <stop offset="1" stop-color="#6B7951" stop-opacity="0"/>
    </radialGradient>
    <linearGradient id="adultGrad" x1="286" y1="300" x2="630" y2="770" gradientUnits="userSpaceOnUse">
      <stop stop-color="#30382F"/>
      <stop offset="0.58" stop-color="#4C5748"/>
      <stop offset="1" stop-color="#72776B"/>
    </linearGradient>
    <linearGradient id="childGrad" x1="662" y1="424" x2="768" y2="760" gradientUnits="userSpaceOnUse">
      <stop stop-color="#6B7951"/>
      <stop offset="1" stop-color="#8D9B77"/>
    </linearGradient>
    <linearGradient id="pathGrad" x1="360" y1="714" x2="730" y2="548" gradientUnits="userSpaceOnUse">
      <stop stop-color="#8D9B77"/>
      <stop offset="1" stop-color="#6B7951"/>
    </linearGradient>
    <linearGradient id="edge" x1="162" y1="152" x2="865" y2="870" gradientUnits="userSpaceOnUse">
      <stop stop-color="#FFFFFF" stop-opacity="0.95"/>
      <stop offset="0.45" stop-color="#D4D7CC" stop-opacity="0.54"/>
      <stop offset="1" stop-color="#A6AB98" stop-opacity="0.42"/>
    </linearGradient>
    <filter id="shadow" x="-20%" y="-20%" width="140%" height="150%">
      <feDropShadow dx="0" dy="24" stdDeviation="28" flood-color="#30382F" flood-opacity="0.18"/>
    </filter>
    <filter id="soften">
      <feGaussianBlur stdDeviation="18"/>
    </filter>
    <clipPath id="iconClip">
      <rect x="64" y="64" width="896" height="896" rx="220"/>
    </clipPath>
  </defs>
  <g filter="url(#shadow)">
    <rect x="64" y="64" width="896" height="896" rx="220" fill="url(#bg)"/>
    <rect x="65" y="65" width="894" height="894" rx="219"
          stroke="url(#edge)" stroke-width="2"/>
  </g>
  <g clip-path="url(#iconClip)">
    <rect x="64" y="64" width="896" height="896" fill="url(#glassGlow)"/>
    <path d="M27 798C165 711 265 691 399 705C545 720 680 797 1003 866"
          stroke="#A6AB98" stroke-width="84" stroke-linecap="round" opacity="0.16"/>
    <ellipse cx="815" cy="824" rx="226" ry="112" fill="#8D9B77" opacity="0.055"
             transform="rotate(-17 815 824)"/>
    <g stroke="#6B7951" stroke-linecap="round">
      <path d="M512 110V914" stroke-width="2" opacity="0.28"/>
      <path d="M110 512H914" stroke-width="2" opacity="0.22"/>
      <path d="M180 845L844 181" stroke-width="1.5" opacity="0.16"/>
      <path d="M176 206L850 874" stroke-width="1.4" opacity="0.12"/>
      <path d="M227 515C235 344 355 206 512 178C690 146 835 270 851 435"
            stroke-width="2.8" opacity="0.62"/>
      <path d="M852 463C857 575 821 663 760 730"
            stroke-width="2.8" opacity="0.62"/>
      <path d="M744 746C664 821 538 849 426 821"
            stroke-width="2.8" opacity="0.62"/>
      <path d="M592 177C670 189 733 217 784 263"
            stroke-width="2.2" stroke-dasharray="6 14" opacity="0.62"/>
      <path d="M822 607C812 646 797 679 775 709"
            stroke-width="2.2" stroke-dasharray="6 14" opacity="0.62"/>
    </g>
    <g>
      <circle cx="227" cy="515" r="14" fill="#FCFBF6" stroke="#6B7951" stroke-width="3" opacity="0.92"/>
      <circle cx="512" cy="178" r="8" fill="#6B7951"/>
      <circle cx="851" cy="435" r="8" fill="#6B7951"/>
      <circle cx="760" cy="730" r="8" fill="#6B7951"/>
      <circle cx="426" cy="821" r="8" fill="#6B7951"/>
    </g>
    <circle cx="512" cy="344" r="69" fill="url(#adultGrad)"/>
    <path d="M247 708
             C230 579 248 472 313 407
             C369 351 445 353 502 390
             C558 426 585 478 628 513
             C650 531 675 540 704 540
             C660 573 614 589 564 583
             C514 577 476 548 446 514
             C409 473 371 457 341 472
             C311 488 296 524 299 575
             C303 638 330 694 376 741
             C329 748 286 735 247 708Z"
          fill="url(#adultGrad)"/>
    <circle cx="705" cy="484" r="48" fill="url(#childGrad)"/>
    <path d="M643 694
             C642 629 650 577 675 545
             C694 520 722 519 743 539
             C776 569 792 621 790 690
             C789 728 775 766 750 794
             C712 779 678 744 643 694Z"
          fill="url(#childGrad)"/>
<path d="M352 822
             C414 754 462 695 513 641
             C566 585 620 557 702 540"
          stroke="url(#pathGrad)" stroke-width="34" stroke-linecap="round"/>
    <g stroke="#6B7951" opacity="0.50">
      <circle cx="295" cy="268" r="22" stroke-width="2"/>
      <circle cx="318" cy="248" r="12" stroke-width="2"/>
      <path d="M276 282L245 313" stroke-width="2"/>
      <path d="M805 306L848 263" stroke-width="2"/>
      <path d="M804 306L852 306" stroke-width="2"/>
    </g>
    <g fill="#30382F">
      <circle cx="351" cy="324" r="7"/>
      <circle cx="812" cy="594" r="7"/>
    </g>
    <path d="M130 151C302 85 579 88 826 143C882 156 924 196 947 247"
          stroke="#FFFFFF" stroke-width="22" stroke-linecap="round" opacity="0.48"/>
  </g>
</svg>
